<?xml version="1.0" encoding="utf-8"?>
<!-- Generator: Adobe Illustrator 19.1.0, SVG Export Plug-In . SVG Version: 6.00 Build 0)  -->
<svg version="1.1" id="Layer_1" xmlns="http://www.w3.org/2000/svg" xmlns:xlink="http://www.w3.org/1999/xlink" x="0px" y="0px"
	 viewBox="-564 350.1 93.9 93.9" style="enable-background:new -564 350.1 93.9 93.9;" xml:space="preserve">
<style type="text/css">
	.st0{fill:#26A7C6;}
	.st1{fill:#EFEEED;}
	.st2{fill:#FFFFFF;}
	.st3{font-family:'MyriadPro-Regular';}
	.st4{font-size:12px;}
</style>
<circle cx="-517.1" cy="397" r="46.9"/>
<path class="st0" d="M-522.3,395.8c0.4,1.2-1,2.2-2.3,2.2s-2.6-1.1-2.3-2.2c0.2-0.8,1.6-3.9,2.3-4.5
	C-523.9,390.7-522.6,394.6-522.3,395.8z"/>
<path class="st0" d="M-520,417.9c0.4,1.2-1.1,2.2-2.5,2.2s-2.8-1.1-2.5-2.2c0.3-0.8,1.8-3.9,2.5-4.5
	C-522.4,413.3-519.7,418.7-520,417.9z"/>
<path class="st0" d="M-526.9,408.1c0.3,1-0.8,1.8-1.8,1.8s-2.1-0.9-1.8-1.8c0.2-0.7,1.3-3.2,1.9-3.8
	C-528.2,403.8-527.2,407.1-526.9,408.1z"/>
<path class="st0" d="M-509.1,395.6c0.3,1-0.8,1.8-1.8,1.8c-1,0-2.1-0.9-1.8-1.8c0.2-0.7,1.3-3.2,1.9-3.8
	C-510.4,391.3-509.3,394.6-509.1,395.6z"/>
<path class="st0" d="M-516.2,407.3c0.3,1-0.8,1.8-1.8,1.8c-1,0-2.1-0.9-1.8-1.8c0.2-0.7,1.3-3.2,1.9-3.8
	C-517.5,403-516.5,406.3-516.2,407.3z"/>
<g>
	<g id="Shape_15_1_">
		<g>
			<path class="st1" d="M-492.7,389.1h-3.5v-2.8h-43.3c-1.6,0-3,0.9-3.7,2.4c-0.7,1.5-0.4,3.2,0.7,4.4l4.4,4.9v27.7
				c0,3.8,3.1,6.9,6.9,6.9h28.1c3.8,0,6.9-3.1,6.9-6.9v-7.9h3.5c3.9,0,7.1-3.2,7.1-7.1v-14.4C-485.7,392.3-488.8,389.1-492.7,389.1z
				 M-498.4,425.6c0,2.6-2.1,4.8-4.8,4.8h-28.1c-2.6,0-4.8-2.2-4.8-4.8v-28.5l-5-5.5c-0.5-0.6-0.7-1.4-0.3-2.1
				c0.3-0.7,1-1.2,1.8-1.2h41.2V425.6L-498.4,425.6z M-487.8,410.6c0,2.8-2.2,5-5,5h-3.5v-24.4h3.5c2.7,0,5,2.2,5,5V410.6z
				 M-501.4,399.7h-9.5v2.1h9.5V399.7z M-501.4,407.1h-9.5v2.1h9.5V407.1z M-501.4,414.6h-9.5v2.1h9.5V414.6z M-501.4,422h-9.5v2.1
				h9.5V422z"/>
		</g>
	</g>
</g>
<polygon class="st0" points="-501.6,430.4 -532,430.7 -533.5,429.9 -534.7,429 -535.8,427.4 -536.1,425.1 -536.1,422 -498.4,422 
	-498.4,425.4 -498.5,426.6 -499,428 -499.7,429 "/>
<text transform="matrix(1 0 0 1 -549 378.85)" class="st2 st3 st4">Precipitation</text>
</svg>
